<svg width="51" height="50" viewBox="0 0 51 50" fill="none" xmlns="http://www.w3.org/2000/svg">
<path d="M33.8333 25H38V33.3333H33.8333V25Z" fill="#D3D3D3"/>
<path d="M42.1667 14.5833V10.4167C42.1667 8.11875 40.2979 6.25 38 6.25H10.9167C7.47084 6.25 4.66667 9.05417 4.66667 12.5V37.5C4.66667 42.0854 8.40417 43.75 10.9167 43.75H42.1667C44.4646 43.75 46.3333 41.8812 46.3333 39.5833V18.75C46.3333 16.4521 44.4646 14.5833 42.1667 14.5833ZM10.9167 10.4167H38V14.5833H10.9167C10.3803 14.5593 9.87377 14.3294 9.50266 13.9413C9.13156 13.5532 8.92445 13.037 8.92445 12.5C8.92445 11.963 9.13156 11.4468 9.50266 11.0587C9.87377 10.6706 10.3803 10.4407 10.9167 10.4167ZM42.1667 39.5833H10.9417C9.97917 39.5583 8.83334 39.1771 8.83334 37.5V18.3646C9.4875 18.6 10.1813 18.75 10.9167 18.75H42.1667V39.5833Z" fill="#D3D3D3"/>
</svg>
